<mxfile host="app.diagrams.net" agent="Mozilla/5.0 (Windows NT 10.0; Win64; x64) AppleWebKit/537.36 (KHTML, like Gecko) Chrome/131.0.0.0 Safari/537.36" version="24.8.8">
  <diagram name="Page-1" id="dAdxT6PlNflJO-I5DjQb">
    <mxGraphModel dx="2319" dy="924" grid="1" gridSize="10" guides="1" tooltips="1" connect="1" arrows="1" fold="1" page="1" pageScale="1" pageWidth="850" pageHeight="1100" math="0" shadow="0">
      <root>
        <mxCell id="0" />
        <mxCell id="1" parent="0" />
        <mxCell id="sjET2w-emDGGVkZ5eXsf-5" value="User" style="whiteSpace=wrap;html=1;align=center;fillColor=#dae8fc;strokeColor=#6c8ebf;" vertex="1" parent="1">
          <mxGeometry x="120" y="240" width="100" height="40" as="geometry" />
        </mxCell>
        <mxCell id="sjET2w-emDGGVkZ5eXsf-6" value="Game" style="whiteSpace=wrap;html=1;align=center;fillColor=#dae8fc;strokeColor=#6c8ebf;" vertex="1" parent="1">
          <mxGeometry x="240" y="230" width="100" height="40" as="geometry" />
        </mxCell>
        <mxCell id="sjET2w-emDGGVkZ5eXsf-7" value="Developer" style="whiteSpace=wrap;html=1;align=center;fillColor=#dae8fc;strokeColor=#6c8ebf;" vertex="1" parent="1">
          <mxGeometry x="550" y="240" width="100" height="40" as="geometry" />
        </mxCell>
        <mxCell id="sjET2w-emDGGVkZ5eXsf-66" style="edgeStyle=orthogonalEdgeStyle;rounded=0;orthogonalLoop=1;jettySize=auto;html=1;exitX=0;exitY=0.5;exitDx=0;exitDy=0;entryX=1;entryY=0.5;entryDx=0;entryDy=0;endArrow=none;endFill=0;" edge="1" parent="1" source="sjET2w-emDGGVkZ5eXsf-8" target="sjET2w-emDGGVkZ5eXsf-65">
          <mxGeometry relative="1" as="geometry" />
        </mxCell>
        <mxCell id="sjET2w-emDGGVkZ5eXsf-8" value="Tag" style="whiteSpace=wrap;html=1;align=center;fillColor=#dae8fc;strokeColor=#6c8ebf;" vertex="1" parent="1">
          <mxGeometry x="580" y="530" width="100" height="40" as="geometry" />
        </mxCell>
        <mxCell id="sjET2w-emDGGVkZ5eXsf-9" value="Review" style="shape=ext;margin=3;double=1;whiteSpace=wrap;html=1;align=center;fillColor=#dae8fc;strokeColor=#6c8ebf;" vertex="1" parent="1">
          <mxGeometry x="-140" y="440" width="100" height="40" as="geometry" />
        </mxCell>
        <mxCell id="sjET2w-emDGGVkZ5eXsf-85" style="edgeStyle=orthogonalEdgeStyle;rounded=0;orthogonalLoop=1;jettySize=auto;html=1;exitX=1;exitY=0;exitDx=0;exitDy=0;endArrow=none;endFill=0;" edge="1" parent="1" source="sjET2w-emDGGVkZ5eXsf-10" target="sjET2w-emDGGVkZ5eXsf-68">
          <mxGeometry relative="1" as="geometry" />
        </mxCell>
        <mxCell id="sjET2w-emDGGVkZ5eXsf-10" value="Purchase" style="shape=ext;margin=3;double=1;whiteSpace=wrap;html=1;align=center;fillColor=#dae8fc;strokeColor=#6c8ebf;" vertex="1" parent="1">
          <mxGeometry x="-20" y="440" width="100" height="40" as="geometry" />
        </mxCell>
        <mxCell id="sjET2w-emDGGVkZ5eXsf-17" style="edgeStyle=orthogonalEdgeStyle;rounded=0;orthogonalLoop=1;jettySize=auto;html=1;exitX=0.5;exitY=1;exitDx=0;exitDy=0;endArrow=none;endFill=0;" edge="1" parent="1" source="sjET2w-emDGGVkZ5eXsf-11" target="sjET2w-emDGGVkZ5eXsf-5">
          <mxGeometry relative="1" as="geometry" />
        </mxCell>
        <mxCell id="sjET2w-emDGGVkZ5eXsf-11" value="User_ID" style="ellipse;whiteSpace=wrap;html=1;align=center;fontStyle=4;fillColor=#ffe6cc;strokeColor=#d79b00;" vertex="1" parent="1">
          <mxGeometry x="80" y="130" width="100" height="40" as="geometry" />
        </mxCell>
        <mxCell id="sjET2w-emDGGVkZ5eXsf-18" style="edgeStyle=orthogonalEdgeStyle;rounded=0;orthogonalLoop=1;jettySize=auto;html=1;exitX=0.5;exitY=1;exitDx=0;exitDy=0;entryX=0.5;entryY=0;entryDx=0;entryDy=0;endArrow=none;endFill=0;" edge="1" parent="1" source="sjET2w-emDGGVkZ5eXsf-12" target="sjET2w-emDGGVkZ5eXsf-6">
          <mxGeometry relative="1" as="geometry" />
        </mxCell>
        <mxCell id="sjET2w-emDGGVkZ5eXsf-12" value="Game_ID" style="ellipse;whiteSpace=wrap;html=1;align=center;fontStyle=4;fillColor=#ffe6cc;strokeColor=#d79b00;" vertex="1" parent="1">
          <mxGeometry x="240" y="130" width="100" height="40" as="geometry" />
        </mxCell>
        <mxCell id="sjET2w-emDGGVkZ5eXsf-19" style="edgeStyle=orthogonalEdgeStyle;rounded=0;orthogonalLoop=1;jettySize=auto;html=1;exitX=0.5;exitY=0;exitDx=0;exitDy=0;entryX=0.5;entryY=1;entryDx=0;entryDy=0;endArrow=none;endFill=0;" edge="1" parent="1" source="sjET2w-emDGGVkZ5eXsf-13" target="sjET2w-emDGGVkZ5eXsf-9">
          <mxGeometry relative="1" as="geometry" />
        </mxCell>
        <mxCell id="sjET2w-emDGGVkZ5eXsf-13" value="Review_ID" style="ellipse;whiteSpace=wrap;html=1;align=center;fontStyle=4;fillColor=#ffe6cc;strokeColor=#d79b00;" vertex="1" parent="1">
          <mxGeometry x="-200" y="580" width="100" height="40" as="geometry" />
        </mxCell>
        <mxCell id="sjET2w-emDGGVkZ5eXsf-21" style="edgeStyle=orthogonalEdgeStyle;rounded=0;orthogonalLoop=1;jettySize=auto;html=1;exitX=0.5;exitY=1;exitDx=0;exitDy=0;entryX=0.5;entryY=0;entryDx=0;entryDy=0;endArrow=none;endFill=0;" edge="1" parent="1" source="sjET2w-emDGGVkZ5eXsf-14" target="sjET2w-emDGGVkZ5eXsf-7">
          <mxGeometry relative="1" as="geometry" />
        </mxCell>
        <mxCell id="sjET2w-emDGGVkZ5eXsf-14" value="Developer_ID" style="ellipse;whiteSpace=wrap;html=1;align=center;fontStyle=4;fillColor=#ffe6cc;strokeColor=#d79b00;" vertex="1" parent="1">
          <mxGeometry x="580" y="130" width="100" height="40" as="geometry" />
        </mxCell>
        <mxCell id="sjET2w-emDGGVkZ5eXsf-15" value="Tag_ID" style="ellipse;whiteSpace=wrap;html=1;align=center;fontStyle=4;fillColor=#ffe6cc;strokeColor=#d79b00;" vertex="1" parent="1">
          <mxGeometry x="620" y="420" width="100" height="40" as="geometry" />
        </mxCell>
        <mxCell id="sjET2w-emDGGVkZ5eXsf-20" style="edgeStyle=orthogonalEdgeStyle;rounded=0;orthogonalLoop=1;jettySize=auto;html=1;exitX=0.5;exitY=0;exitDx=0;exitDy=0;entryX=0.5;entryY=1;entryDx=0;entryDy=0;endArrow=none;endFill=0;" edge="1" parent="1" source="sjET2w-emDGGVkZ5eXsf-16" target="sjET2w-emDGGVkZ5eXsf-10">
          <mxGeometry relative="1" as="geometry" />
        </mxCell>
        <mxCell id="sjET2w-emDGGVkZ5eXsf-16" value="Purchase_ID" style="ellipse;whiteSpace=wrap;html=1;align=center;fontStyle=4;fillColor=#ffe6cc;strokeColor=#d79b00;" vertex="1" parent="1">
          <mxGeometry x="-60" y="580" width="100" height="40" as="geometry" />
        </mxCell>
        <mxCell id="sjET2w-emDGGVkZ5eXsf-22" style="edgeStyle=orthogonalEdgeStyle;rounded=0;orthogonalLoop=1;jettySize=auto;html=1;exitX=0.5;exitY=1;exitDx=0;exitDy=0;entryX=0.43;entryY=0;entryDx=0;entryDy=0;entryPerimeter=0;endArrow=none;endFill=0;" edge="1" parent="1" source="sjET2w-emDGGVkZ5eXsf-15" target="sjET2w-emDGGVkZ5eXsf-8">
          <mxGeometry relative="1" as="geometry" />
        </mxCell>
        <mxCell id="sjET2w-emDGGVkZ5eXsf-24" style="edgeStyle=orthogonalEdgeStyle;rounded=0;orthogonalLoop=1;jettySize=auto;html=1;exitX=0.5;exitY=0;exitDx=0;exitDy=0;entryX=0.75;entryY=1;entryDx=0;entryDy=0;endArrow=none;endFill=0;" edge="1" parent="1" source="sjET2w-emDGGVkZ5eXsf-23" target="sjET2w-emDGGVkZ5eXsf-10">
          <mxGeometry relative="1" as="geometry" />
        </mxCell>
        <mxCell id="sjET2w-emDGGVkZ5eXsf-23" value="Price_Paid" style="ellipse;whiteSpace=wrap;html=1;align=center;dashed=1;fillColor=#ffe6cc;strokeColor=#d79b00;" vertex="1" parent="1">
          <mxGeometry x="60" y="580" width="100" height="40" as="geometry" />
        </mxCell>
        <mxCell id="sjET2w-emDGGVkZ5eXsf-25" value="Wallet_Balance" style="ellipse;whiteSpace=wrap;html=1;align=center;dashed=1;fillColor=#ffe6cc;strokeColor=#d79b00;" vertex="1" parent="1">
          <mxGeometry x="200" y="60" width="100" height="40" as="geometry" />
        </mxCell>
        <mxCell id="sjET2w-emDGGVkZ5eXsf-26" style="edgeStyle=orthogonalEdgeStyle;rounded=0;orthogonalLoop=1;jettySize=auto;html=1;exitX=0.5;exitY=1;exitDx=0;exitDy=0;entryX=0.75;entryY=0;entryDx=0;entryDy=0;endArrow=none;endFill=0;" edge="1" parent="1" source="sjET2w-emDGGVkZ5eXsf-25" target="sjET2w-emDGGVkZ5eXsf-5">
          <mxGeometry relative="1" as="geometry">
            <mxPoint x="180" y="250" as="targetPoint" />
            <Array as="points">
              <mxPoint x="230" y="100" />
              <mxPoint x="230" y="170" />
              <mxPoint x="195" y="170" />
            </Array>
          </mxGeometry>
        </mxCell>
        <mxCell id="sjET2w-emDGGVkZ5eXsf-28" style="edgeStyle=orthogonalEdgeStyle;rounded=0;orthogonalLoop=1;jettySize=auto;html=1;exitX=0.5;exitY=1;exitDx=0;exitDy=0;entryX=0;entryY=0.5;entryDx=0;entryDy=0;endArrow=none;endFill=0;" edge="1" parent="1" source="sjET2w-emDGGVkZ5eXsf-27" target="sjET2w-emDGGVkZ5eXsf-5">
          <mxGeometry relative="1" as="geometry">
            <Array as="points">
              <mxPoint x="50" y="100" />
              <mxPoint x="50" y="260" />
            </Array>
          </mxGeometry>
        </mxCell>
        <mxCell id="sjET2w-emDGGVkZ5eXsf-27" value="Username" style="ellipse;whiteSpace=wrap;html=1;align=center;fillColor=#ffe6cc;strokeColor=#d79b00;" vertex="1" parent="1">
          <mxGeometry x="60" y="60" width="100" height="40" as="geometry" />
        </mxCell>
        <mxCell id="sjET2w-emDGGVkZ5eXsf-29" value="Password_Hash" style="ellipse;whiteSpace=wrap;html=1;align=center;fillColor=#ffe6cc;strokeColor=#d79b00;" vertex="1" parent="1">
          <mxGeometry x="120" y="10" width="100" height="40" as="geometry" />
        </mxCell>
        <mxCell id="sjET2w-emDGGVkZ5eXsf-30" style="edgeStyle=orthogonalEdgeStyle;rounded=0;orthogonalLoop=1;jettySize=auto;html=1;exitX=0.5;exitY=1;exitDx=0;exitDy=0;entryX=0.63;entryY=0.025;entryDx=0;entryDy=0;entryPerimeter=0;endArrow=none;endFill=0;" edge="1" parent="1" source="sjET2w-emDGGVkZ5eXsf-29" target="sjET2w-emDGGVkZ5eXsf-5">
          <mxGeometry relative="1" as="geometry">
            <mxPoint x="230" y="220" as="targetPoint" />
            <Array as="points">
              <mxPoint x="180" y="50" />
              <mxPoint x="180" y="145" />
              <mxPoint x="182" y="145" />
            </Array>
          </mxGeometry>
        </mxCell>
        <mxCell id="sjET2w-emDGGVkZ5eXsf-34" style="edgeStyle=orthogonalEdgeStyle;rounded=0;orthogonalLoop=1;jettySize=auto;html=1;exitX=0.5;exitY=1;exitDx=0;exitDy=0;entryX=0;entryY=0;entryDx=0;entryDy=0;endArrow=none;endFill=0;" edge="1" parent="1" source="sjET2w-emDGGVkZ5eXsf-31" target="sjET2w-emDGGVkZ5eXsf-5">
          <mxGeometry relative="1" as="geometry">
            <Array as="points">
              <mxPoint x="20" y="100" />
              <mxPoint x="20" y="200" />
              <mxPoint x="120" y="200" />
            </Array>
          </mxGeometry>
        </mxCell>
        <mxCell id="sjET2w-emDGGVkZ5eXsf-31" value="Email" style="ellipse;whiteSpace=wrap;html=1;align=center;fillColor=#ffe6cc;strokeColor=#d79b00;" vertex="1" parent="1">
          <mxGeometry x="-50" y="60" width="100" height="40" as="geometry" />
        </mxCell>
        <mxCell id="sjET2w-emDGGVkZ5eXsf-33" style="edgeStyle=orthogonalEdgeStyle;rounded=0;orthogonalLoop=1;jettySize=auto;html=1;exitX=0.5;exitY=1;exitDx=0;exitDy=0;entryX=0;entryY=0.25;entryDx=0;entryDy=0;endArrow=none;endFill=0;" edge="1" parent="1" source="sjET2w-emDGGVkZ5eXsf-32" target="sjET2w-emDGGVkZ5eXsf-5">
          <mxGeometry relative="1" as="geometry" />
        </mxCell>
        <mxCell id="sjET2w-emDGGVkZ5eXsf-32" value="Join_Date" style="ellipse;whiteSpace=wrap;html=1;align=center;fillColor=#ffe6cc;strokeColor=#d79b00;" vertex="1" parent="1">
          <mxGeometry x="-100" y="120" width="100" height="40" as="geometry" />
        </mxCell>
        <mxCell id="sjET2w-emDGGVkZ5eXsf-42" style="edgeStyle=orthogonalEdgeStyle;rounded=0;orthogonalLoop=1;jettySize=auto;html=1;exitX=0.5;exitY=1;exitDx=0;exitDy=0;entryX=1;entryY=0;entryDx=0;entryDy=0;endArrow=none;endFill=0;" edge="1" parent="1" source="sjET2w-emDGGVkZ5eXsf-35" target="sjET2w-emDGGVkZ5eXsf-6">
          <mxGeometry relative="1" as="geometry">
            <Array as="points">
              <mxPoint x="410" y="120" />
              <mxPoint x="370" y="120" />
              <mxPoint x="370" y="240" />
            </Array>
          </mxGeometry>
        </mxCell>
        <mxCell id="sjET2w-emDGGVkZ5eXsf-35" value="Developer" style="ellipse;whiteSpace=wrap;html=1;align=center;fillColor=#ffe6cc;strokeColor=#d79b00;" vertex="1" parent="1">
          <mxGeometry x="360" y="10" width="100" height="40" as="geometry" />
        </mxCell>
        <mxCell id="sjET2w-emDGGVkZ5eXsf-41" style="edgeStyle=orthogonalEdgeStyle;rounded=0;orthogonalLoop=1;jettySize=auto;html=1;exitX=0.5;exitY=1;exitDx=0;exitDy=0;entryX=1;entryY=0.5;entryDx=0;entryDy=0;endArrow=none;endFill=0;" edge="1" parent="1" source="sjET2w-emDGGVkZ5eXsf-36" target="sjET2w-emDGGVkZ5eXsf-6">
          <mxGeometry relative="1" as="geometry" />
        </mxCell>
        <mxCell id="sjET2w-emDGGVkZ5eXsf-36" value="Release_Date" style="ellipse;whiteSpace=wrap;html=1;align=center;fillColor=#ffe6cc;strokeColor=#d79b00;" vertex="1" parent="1">
          <mxGeometry x="370" y="140" width="100" height="40" as="geometry" />
        </mxCell>
        <mxCell id="sjET2w-emDGGVkZ5eXsf-39" style="edgeStyle=orthogonalEdgeStyle;rounded=0;orthogonalLoop=1;jettySize=auto;html=1;exitX=0.5;exitY=1;exitDx=0;exitDy=0;entryX=0.75;entryY=0;entryDx=0;entryDy=0;endArrow=none;endFill=0;" edge="1" parent="1" source="sjET2w-emDGGVkZ5eXsf-37" target="sjET2w-emDGGVkZ5eXsf-6">
          <mxGeometry relative="1" as="geometry" />
        </mxCell>
        <mxCell id="sjET2w-emDGGVkZ5eXsf-37" value="Title" style="ellipse;whiteSpace=wrap;html=1;align=center;fillColor=#ffe6cc;strokeColor=#d79b00;" vertex="1" parent="1">
          <mxGeometry x="310" y="60" width="100" height="40" as="geometry" />
        </mxCell>
        <mxCell id="sjET2w-emDGGVkZ5eXsf-40" style="edgeStyle=orthogonalEdgeStyle;rounded=0;orthogonalLoop=1;jettySize=auto;html=1;exitX=0.5;exitY=1;exitDx=0;exitDy=0;entryX=1;entryY=0.25;entryDx=0;entryDy=0;endArrow=none;endFill=0;" edge="1" parent="1" source="sjET2w-emDGGVkZ5eXsf-38" target="sjET2w-emDGGVkZ5eXsf-6">
          <mxGeometry relative="1" as="geometry" />
        </mxCell>
        <mxCell id="sjET2w-emDGGVkZ5eXsf-38" value="Genre" style="ellipse;whiteSpace=wrap;html=1;align=center;fillColor=#ffe6cc;strokeColor=#d79b00;" vertex="1" parent="1">
          <mxGeometry x="420" y="60" width="100" height="40" as="geometry" />
        </mxCell>
        <mxCell id="sjET2w-emDGGVkZ5eXsf-44" style="edgeStyle=orthogonalEdgeStyle;rounded=0;orthogonalLoop=1;jettySize=auto;html=1;exitX=0.5;exitY=1;exitDx=0;exitDy=0;entryX=1;entryY=0.75;entryDx=0;entryDy=0;endArrow=none;endFill=0;" edge="1" parent="1" source="sjET2w-emDGGVkZ5eXsf-43" target="sjET2w-emDGGVkZ5eXsf-6">
          <mxGeometry relative="1" as="geometry" />
        </mxCell>
        <mxCell id="sjET2w-emDGGVkZ5eXsf-43" value="Price" style="ellipse;whiteSpace=wrap;html=1;align=center;fillColor=#ffe6cc;strokeColor=#d79b00;" vertex="1" parent="1">
          <mxGeometry x="470" y="10" width="100" height="40" as="geometry" />
        </mxCell>
        <mxCell id="sjET2w-emDGGVkZ5eXsf-46" style="edgeStyle=orthogonalEdgeStyle;rounded=0;orthogonalLoop=1;jettySize=auto;html=1;exitX=1;exitY=0.5;exitDx=0;exitDy=0;entryX=0;entryY=0.75;entryDx=0;entryDy=0;endArrow=none;endFill=0;" edge="1" parent="1" source="sjET2w-emDGGVkZ5eXsf-45" target="sjET2w-emDGGVkZ5eXsf-9">
          <mxGeometry relative="1" as="geometry" />
        </mxCell>
        <mxCell id="sjET2w-emDGGVkZ5eXsf-45" value="Rating" style="ellipse;whiteSpace=wrap;html=1;align=center;fillColor=#ffe6cc;strokeColor=#d79b00;" vertex="1" parent="1">
          <mxGeometry x="-310" y="540" width="100" height="40" as="geometry" />
        </mxCell>
        <mxCell id="sjET2w-emDGGVkZ5eXsf-49" style="edgeStyle=orthogonalEdgeStyle;rounded=0;orthogonalLoop=1;jettySize=auto;html=1;exitX=1;exitY=0.5;exitDx=0;exitDy=0;entryX=0.25;entryY=1;entryDx=0;entryDy=0;endArrow=none;endFill=0;" edge="1" parent="1" source="sjET2w-emDGGVkZ5eXsf-47" target="sjET2w-emDGGVkZ5eXsf-9">
          <mxGeometry relative="1" as="geometry" />
        </mxCell>
        <mxCell id="sjET2w-emDGGVkZ5eXsf-47" value="Comment" style="ellipse;whiteSpace=wrap;html=1;align=center;fillColor=#ffe6cc;strokeColor=#d79b00;" vertex="1" parent="1">
          <mxGeometry x="-310" y="490" width="100" height="40" as="geometry" />
        </mxCell>
        <mxCell id="sjET2w-emDGGVkZ5eXsf-50" style="edgeStyle=orthogonalEdgeStyle;rounded=0;orthogonalLoop=1;jettySize=auto;html=1;exitX=1;exitY=0.5;exitDx=0;exitDy=0;entryX=0;entryY=0.5;entryDx=0;entryDy=0;endArrow=none;endFill=0;" edge="1" parent="1" source="sjET2w-emDGGVkZ5eXsf-48" target="sjET2w-emDGGVkZ5eXsf-9">
          <mxGeometry relative="1" as="geometry" />
        </mxCell>
        <mxCell id="sjET2w-emDGGVkZ5eXsf-48" value="Review_Date" style="ellipse;whiteSpace=wrap;html=1;align=center;fillColor=#ffe6cc;strokeColor=#d79b00;" vertex="1" parent="1">
          <mxGeometry x="-310" y="440" width="100" height="40" as="geometry" />
        </mxCell>
        <mxCell id="sjET2w-emDGGVkZ5eXsf-52" style="edgeStyle=orthogonalEdgeStyle;rounded=0;orthogonalLoop=1;jettySize=auto;html=1;exitX=0;exitY=0.5;exitDx=0;exitDy=0;entryX=1;entryY=0.75;entryDx=0;entryDy=0;endArrow=none;endFill=0;" edge="1" parent="1" source="sjET2w-emDGGVkZ5eXsf-51" target="sjET2w-emDGGVkZ5eXsf-10">
          <mxGeometry relative="1" as="geometry">
            <Array as="points">
              <mxPoint x="120" y="550" />
              <mxPoint x="120" y="470" />
            </Array>
          </mxGeometry>
        </mxCell>
        <mxCell id="sjET2w-emDGGVkZ5eXsf-51" value="Purchase_Date" style="ellipse;whiteSpace=wrap;html=1;align=center;fillColor=#ffe6cc;strokeColor=#d79b00;" vertex="1" parent="1">
          <mxGeometry x="140" y="530" width="100" height="40" as="geometry" />
        </mxCell>
        <mxCell id="sjET2w-emDGGVkZ5eXsf-54" style="edgeStyle=orthogonalEdgeStyle;rounded=0;orthogonalLoop=1;jettySize=auto;html=1;exitX=0;exitY=0.5;exitDx=0;exitDy=0;entryX=1;entryY=0.25;entryDx=0;entryDy=0;endArrow=none;endFill=0;" edge="1" parent="1" source="sjET2w-emDGGVkZ5eXsf-53" target="sjET2w-emDGGVkZ5eXsf-10">
          <mxGeometry relative="1" as="geometry">
            <Array as="points">
              <mxPoint x="130" y="490" />
              <mxPoint x="130" y="450" />
            </Array>
          </mxGeometry>
        </mxCell>
        <mxCell id="sjET2w-emDGGVkZ5eXsf-53" value="Payment_Method" style="ellipse;whiteSpace=wrap;html=1;align=center;fillColor=#ffe6cc;strokeColor=#d79b00;" vertex="1" parent="1">
          <mxGeometry x="150" y="470" width="100" height="40" as="geometry" />
        </mxCell>
        <mxCell id="sjET2w-emDGGVkZ5eXsf-58" style="edgeStyle=orthogonalEdgeStyle;rounded=0;orthogonalLoop=1;jettySize=auto;html=1;exitX=0.5;exitY=1;exitDx=0;exitDy=0;entryX=0;entryY=0.5;entryDx=0;entryDy=0;endArrow=none;endFill=0;" edge="1" parent="1" source="sjET2w-emDGGVkZ5eXsf-55" target="sjET2w-emDGGVkZ5eXsf-7">
          <mxGeometry relative="1" as="geometry">
            <Array as="points">
              <mxPoint x="560" y="110" />
              <mxPoint x="560" y="175" />
              <mxPoint x="530" y="175" />
              <mxPoint x="530" y="260" />
            </Array>
          </mxGeometry>
        </mxCell>
        <mxCell id="sjET2w-emDGGVkZ5eXsf-55" value="Name" style="ellipse;whiteSpace=wrap;html=1;align=center;fillColor=#ffe6cc;strokeColor=#d79b00;" vertex="1" parent="1">
          <mxGeometry x="540" y="70" width="100" height="40" as="geometry" />
        </mxCell>
        <mxCell id="sjET2w-emDGGVkZ5eXsf-59" style="edgeStyle=orthogonalEdgeStyle;rounded=0;orthogonalLoop=1;jettySize=auto;html=1;exitX=0.5;exitY=1;exitDx=0;exitDy=0;entryX=1;entryY=0.5;entryDx=0;entryDy=0;endArrow=none;endFill=0;" edge="1" parent="1" source="sjET2w-emDGGVkZ5eXsf-56" target="sjET2w-emDGGVkZ5eXsf-7">
          <mxGeometry relative="1" as="geometry" />
        </mxCell>
        <mxCell id="sjET2w-emDGGVkZ5eXsf-56" value="Website" style="ellipse;whiteSpace=wrap;html=1;align=center;fillColor=#ffe6cc;strokeColor=#d79b00;" vertex="1" parent="1">
          <mxGeometry x="710" y="130" width="100" height="40" as="geometry" />
        </mxCell>
        <mxCell id="sjET2w-emDGGVkZ5eXsf-60" style="edgeStyle=orthogonalEdgeStyle;rounded=0;orthogonalLoop=1;jettySize=auto;html=1;exitX=0.5;exitY=1;exitDx=0;exitDy=0;entryX=1;entryY=0;entryDx=0;entryDy=0;endArrow=none;endFill=0;" edge="1" parent="1" source="sjET2w-emDGGVkZ5eXsf-57" target="sjET2w-emDGGVkZ5eXsf-7">
          <mxGeometry relative="1" as="geometry" />
        </mxCell>
        <mxCell id="sjET2w-emDGGVkZ5eXsf-57" value="Country" style="ellipse;whiteSpace=wrap;html=1;align=center;fillColor=#ffe6cc;strokeColor=#d79b00;" vertex="1" parent="1">
          <mxGeometry x="650" y="80" width="100" height="40" as="geometry" />
        </mxCell>
        <mxCell id="sjET2w-emDGGVkZ5eXsf-63" style="edgeStyle=orthogonalEdgeStyle;rounded=0;orthogonalLoop=1;jettySize=auto;html=1;exitX=0.5;exitY=1;exitDx=0;exitDy=0;entryX=1;entryY=0.5;entryDx=0;entryDy=0;endArrow=none;endFill=0;" edge="1" parent="1" source="sjET2w-emDGGVkZ5eXsf-62" target="sjET2w-emDGGVkZ5eXsf-8">
          <mxGeometry relative="1" as="geometry" />
        </mxCell>
        <mxCell id="sjET2w-emDGGVkZ5eXsf-62" value="Name" style="ellipse;whiteSpace=wrap;html=1;align=center;fillColor=#ffe6cc;strokeColor=#d79b00;" vertex="1" parent="1">
          <mxGeometry x="720" y="460" width="100" height="40" as="geometry" />
        </mxCell>
        <mxCell id="sjET2w-emDGGVkZ5eXsf-64" value="Writes" style="shape=rhombus;perimeter=rhombusPerimeter;whiteSpace=wrap;html=1;align=center;fillColor=#d5e8d4;strokeColor=#82b366;" vertex="1" parent="1">
          <mxGeometry x="-105" y="330" width="110" height="40" as="geometry" />
        </mxCell>
        <mxCell id="sjET2w-emDGGVkZ5eXsf-67" style="edgeStyle=orthogonalEdgeStyle;rounded=0;orthogonalLoop=1;jettySize=auto;html=1;exitX=0.25;exitY=0;exitDx=0;exitDy=0;entryX=0.75;entryY=1;entryDx=0;entryDy=0;endArrow=none;endFill=0;" edge="1" parent="1" source="sjET2w-emDGGVkZ5eXsf-65" target="sjET2w-emDGGVkZ5eXsf-6">
          <mxGeometry relative="1" as="geometry" />
        </mxCell>
        <mxCell id="sjET2w-emDGGVkZ5eXsf-65" value="Tags" style="shape=associativeEntity;whiteSpace=wrap;html=1;align=center;fillColor=#d5e8d4;strokeColor=#82b366;" vertex="1" parent="1">
          <mxGeometry x="400" y="530" width="110" height="40" as="geometry" />
        </mxCell>
        <mxCell id="sjET2w-emDGGVkZ5eXsf-68" value="Purchases" style="shape=rhombus;perimeter=rhombusPerimeter;whiteSpace=wrap;html=1;align=center;fillColor=#d5e8d4;strokeColor=#82b366;" vertex="1" parent="1">
          <mxGeometry x="190" y="400" width="110" height="40" as="geometry" />
        </mxCell>
        <mxCell id="sjET2w-emDGGVkZ5eXsf-71" style="edgeStyle=orthogonalEdgeStyle;rounded=0;orthogonalLoop=1;jettySize=auto;html=1;exitX=0;exitY=0.5;exitDx=0;exitDy=0;entryX=1;entryY=1;entryDx=0;entryDy=0;endArrow=none;endFill=0;" edge="1" parent="1" source="sjET2w-emDGGVkZ5eXsf-69" target="sjET2w-emDGGVkZ5eXsf-6">
          <mxGeometry relative="1" as="geometry" />
        </mxCell>
        <mxCell id="sjET2w-emDGGVkZ5eXsf-69" value="Develops" style="shape=rhombus;perimeter=rhombusPerimeter;whiteSpace=wrap;html=1;align=center;fillColor=#d5e8d4;strokeColor=#82b366;" vertex="1" parent="1">
          <mxGeometry x="415" y="310" width="110" height="40" as="geometry" />
        </mxCell>
        <mxCell id="sjET2w-emDGGVkZ5eXsf-83" style="edgeStyle=orthogonalEdgeStyle;rounded=0;orthogonalLoop=1;jettySize=auto;html=1;exitX=0.5;exitY=1;exitDx=0;exitDy=0;endArrow=none;endFill=0;" edge="1" parent="1" source="sjET2w-emDGGVkZ5eXsf-70" target="sjET2w-emDGGVkZ5eXsf-10">
          <mxGeometry relative="1" as="geometry" />
        </mxCell>
        <mxCell id="sjET2w-emDGGVkZ5eXsf-84" style="edgeStyle=orthogonalEdgeStyle;rounded=0;orthogonalLoop=1;jettySize=auto;html=1;exitX=1;exitY=0.5;exitDx=0;exitDy=0;entryX=0.25;entryY=1;entryDx=0;entryDy=0;endArrow=none;endFill=0;" edge="1" parent="1" source="sjET2w-emDGGVkZ5eXsf-70" target="sjET2w-emDGGVkZ5eXsf-5">
          <mxGeometry relative="1" as="geometry" />
        </mxCell>
        <mxCell id="sjET2w-emDGGVkZ5eXsf-70" value="Purchases" style="shape=rhombus;perimeter=rhombusPerimeter;whiteSpace=wrap;html=1;align=center;fillColor=#d5e8d4;strokeColor=#82b366;" vertex="1" parent="1">
          <mxGeometry x="10" y="290" width="110" height="40" as="geometry" />
        </mxCell>
        <mxCell id="sjET2w-emDGGVkZ5eXsf-72" style="edgeStyle=orthogonalEdgeStyle;rounded=0;orthogonalLoop=1;jettySize=auto;html=1;exitX=0.879;exitY=0.995;exitDx=0;exitDy=0;exitPerimeter=0;endArrow=none;endFill=0;entryX=0;entryY=1;entryDx=0;entryDy=0;" edge="1" parent="1" source="sjET2w-emDGGVkZ5eXsf-6" target="sjET2w-emDGGVkZ5eXsf-69">
          <mxGeometry relative="1" as="geometry">
            <mxPoint x="420" y="340" as="targetPoint" />
            <Array as="points">
              <mxPoint x="332" y="270" />
              <mxPoint x="332" y="340" />
            </Array>
          </mxGeometry>
        </mxCell>
        <mxCell id="sjET2w-emDGGVkZ5eXsf-73" style="edgeStyle=orthogonalEdgeStyle;rounded=0;orthogonalLoop=1;jettySize=auto;html=1;exitX=1;exitY=0.5;exitDx=0;exitDy=0;entryX=0.5;entryY=1;entryDx=0;entryDy=0;endArrow=none;endFill=0;" edge="1" parent="1" source="sjET2w-emDGGVkZ5eXsf-69" target="sjET2w-emDGGVkZ5eXsf-7">
          <mxGeometry relative="1" as="geometry" />
        </mxCell>
        <mxCell id="sjET2w-emDGGVkZ5eXsf-74" value="1" style="text;html=1;align=center;verticalAlign=middle;resizable=0;points=[];autosize=1;strokeColor=none;fillColor=none;" vertex="1" parent="1">
          <mxGeometry x="590" y="277" width="30" height="30" as="geometry" />
        </mxCell>
        <mxCell id="sjET2w-emDGGVkZ5eXsf-75" value="N" style="text;html=1;align=center;verticalAlign=middle;resizable=0;points=[];autosize=1;strokeColor=none;fillColor=none;" vertex="1" parent="1">
          <mxGeometry x="334" y="269" width="30" height="30" as="geometry" />
        </mxCell>
        <mxCell id="sjET2w-emDGGVkZ5eXsf-76" value="N" style="text;html=1;align=center;verticalAlign=middle;resizable=0;points=[];autosize=1;strokeColor=none;fillColor=none;" vertex="1" parent="1">
          <mxGeometry x="290" y="269" width="30" height="30" as="geometry" />
        </mxCell>
        <mxCell id="sjET2w-emDGGVkZ5eXsf-77" value="M" style="text;html=1;align=center;verticalAlign=middle;resizable=0;points=[];autosize=1;strokeColor=none;fillColor=none;" vertex="1" parent="1">
          <mxGeometry x="552" y="546" width="30" height="30" as="geometry" />
        </mxCell>
        <mxCell id="sjET2w-emDGGVkZ5eXsf-78" style="edgeStyle=orthogonalEdgeStyle;rounded=0;orthogonalLoop=1;jettySize=auto;html=1;exitX=0.5;exitY=0;exitDx=0;exitDy=0;endArrow=none;endFill=0;entryX=0.14;entryY=0.641;entryDx=0;entryDy=0;entryPerimeter=0;" edge="1" parent="1" source="sjET2w-emDGGVkZ5eXsf-9" target="sjET2w-emDGGVkZ5eXsf-64">
          <mxGeometry relative="1" as="geometry">
            <mxPoint x="-90" y="360" as="targetPoint" />
          </mxGeometry>
        </mxCell>
        <mxCell id="sjET2w-emDGGVkZ5eXsf-79" style="edgeStyle=orthogonalEdgeStyle;rounded=0;orthogonalLoop=1;jettySize=auto;html=1;exitX=0.6;exitY=0;exitDx=0;exitDy=0;entryX=0;entryY=1;entryDx=0;entryDy=0;exitPerimeter=0;endArrow=none;endFill=0;" edge="1" parent="1" source="sjET2w-emDGGVkZ5eXsf-9" target="sjET2w-emDGGVkZ5eXsf-64">
          <mxGeometry relative="1" as="geometry">
            <Array as="points">
              <mxPoint x="-80" y="360" />
            </Array>
          </mxGeometry>
        </mxCell>
        <mxCell id="sjET2w-emDGGVkZ5eXsf-80" style="edgeStyle=orthogonalEdgeStyle;rounded=0;orthogonalLoop=1;jettySize=auto;html=1;exitX=1;exitY=0.5;exitDx=0;exitDy=0;endArrow=none;endFill=0;" edge="1" parent="1" source="sjET2w-emDGGVkZ5eXsf-64" target="sjET2w-emDGGVkZ5eXsf-5">
          <mxGeometry relative="1" as="geometry" />
        </mxCell>
        <mxCell id="sjET2w-emDGGVkZ5eXsf-81" value="N" style="text;html=1;align=center;verticalAlign=middle;resizable=0;points=[];autosize=1;strokeColor=none;fillColor=none;" vertex="1" parent="1">
          <mxGeometry x="-86" y="412" width="30" height="30" as="geometry" />
        </mxCell>
        <mxCell id="sjET2w-emDGGVkZ5eXsf-82" value="1" style="text;html=1;align=center;verticalAlign=middle;resizable=0;points=[];autosize=1;strokeColor=none;fillColor=none;" vertex="1" parent="1">
          <mxGeometry x="163" y="276" width="30" height="30" as="geometry" />
        </mxCell>
        <mxCell id="sjET2w-emDGGVkZ5eXsf-87" style="edgeStyle=orthogonalEdgeStyle;rounded=0;orthogonalLoop=1;jettySize=auto;html=1;exitX=0.5;exitY=0;exitDx=0;exitDy=0;endArrow=none;endFill=0;" edge="1" parent="1" source="sjET2w-emDGGVkZ5eXsf-68" target="sjET2w-emDGGVkZ5eXsf-6">
          <mxGeometry relative="1" as="geometry" />
        </mxCell>
        <mxCell id="sjET2w-emDGGVkZ5eXsf-89" value="1" style="text;html=1;align=center;verticalAlign=middle;resizable=0;points=[];autosize=1;strokeColor=none;fillColor=none;" vertex="1" parent="1">
          <mxGeometry x="266" y="265" width="30" height="30" as="geometry" />
        </mxCell>
        <mxCell id="sjET2w-emDGGVkZ5eXsf-90" value="N" style="text;html=1;align=center;verticalAlign=middle;resizable=0;points=[];autosize=1;strokeColor=none;fillColor=none;" vertex="1" parent="1">
          <mxGeometry x="78" y="418" width="30" height="30" as="geometry" />
        </mxCell>
        <mxCell id="sjET2w-emDGGVkZ5eXsf-91" value="N" style="text;html=1;align=center;verticalAlign=middle;resizable=0;points=[];autosize=1;strokeColor=none;fillColor=none;" vertex="1" parent="1">
          <mxGeometry x="4" y="415" width="30" height="30" as="geometry" />
        </mxCell>
        <mxCell id="sjET2w-emDGGVkZ5eXsf-92" value="1" style="text;html=1;align=center;verticalAlign=middle;resizable=0;points=[];autosize=1;strokeColor=none;fillColor=none;" vertex="1" parent="1">
          <mxGeometry x="119" y="275" width="30" height="30" as="geometry" />
        </mxCell>
      </root>
    </mxGraphModel>
  </diagram>
</mxfile>
